<svg xmlns="http://www.w3.org/2000/svg" width="40.172" height="29.46" viewBox="0 0 40.172 29.46"><title>Asset 5</title><path d="M18.747,0V5.356H8.034L0,13.391V24.1H5.356a5.356,5.356,0,0,0,10.713,0H24.1a5.356,5.356,0,0,0,10.713,0h5.356V0Zm-9.6,8.034h1.569v5.357H3.788Zm1.569,18.748A2.678,2.678,0,1,1,13.391,24.1,2.681,2.681,0,0,1,10.713,26.782Zm8.034-5.356H15.326a5.313,5.313,0,0,0-9.227,0H2.678V16.069H13.391V8.034h5.356Zm10.713,5.356A2.678,2.678,0,1,1,32.138,24.1,2.681,2.681,0,0,1,29.459,26.782Zm8.034-5.356H34.073a5.313,5.313,0,0,0-9.227,0H21.425V2.678H37.494Z" fill="#05b5c1"/></svg>