<svg xmlns="http://www.w3.org/2000/svg" width="40.172" height="40.172" viewBox="0 0 40.172 40.172"><title>Asset 6</title><polygon points="21.425 8.034 13.391 8.034 13.391 0 0 0 0 2.678 10.713 2.678 10.713 16.069 0 16.069 0 18.747 13.391 18.747 13.391 10.713 18.747 10.713 18.747 29.459 13.391 29.459 13.391 21.425 0 21.425 0 24.103 10.713 24.103 10.713 37.494 0 37.494 0 40.172 13.391 40.172 13.391 32.138 13.391 32.138 21.425 32.138 21.425 21.425 29.459 21.425 29.459 18.747 21.425 18.747 21.425 8.034" fill="#05b5c1"/><path d="M29.459,24.1V16.069h8.034V24.1H29.459m-2.678,2.678H40.172V13.391H26.781V26.781Z" fill="#05b5c1"/><rect y="24.103" width="2.678" height="16.069" transform="translate(2.678 64.275) rotate(180)" fill="#05b5c1"/><rect width="2.678" height="16.069" transform="translate(2.678 16.069) rotate(180)" fill="#05b5c1"/></svg>